PathFileType	4	(X/Y/Z)	D:\TRACE\spotREDO_2-26-24\spot_justArm_Motion_3_1-platform.trc
DataRate	CameraRate	NumFrames	NumMarkers	Units	OrigDataRate	OrigDataStartFrame	OrigNumFrames
100.00	100.00	      54	5	mm	100.00	5251	      7000
Frame#	Time	Left_Front			Right_Front			Left_Aft			Right_Aft			Post			
		X1	Y1	Z1	X2	Y2	Z2	X3	Y3	Z3	X4	Y4	Z4	X5	Y5	Z5	

5251	52.500	-709.59766	-27.32902	-581.19104	705.20477	-15.17779	-496.87378	-780.91827	28.80786	636.93237	788.47729	35.21574	641.12549	0.03903	583.45898	-1011.84912	
5252	52.510	-709.11493	-27.79418	-580.94952	705.43903	-15.56384	-496.95154	-780.67590	29.24431	636.69092	788.88739	35.39511	640.87286	0.25870	582.73779	-1012.40118	
5253	52.520	-708.96167	-28.39240	-581.25659	705.61749	-16.27514	-496.87241	-780.38300	29.66236	636.50549	788.83063	36.04603	640.81427	0.59775	581.85529	-1012.85126	
5254	52.530	-708.53473	-28.84044	-581.33240	705.77539	-16.67659	-496.97992	-780.21271	30.05687	636.39984	789.02716	36.52189	640.72321	0.85645	581.10956	-1013.32721	
5255	52.540	-708.36267	-29.25477	-581.53015	706.27039	-17.18023	-497.07758	-779.86090	30.58652	636.20905	789.38751	37.09068	640.52472	1.11399	580.56805	-1013.73645	
5256	52.550	-708.23370	-29.47523	-581.62079	706.69617	-17.48602	-497.10782	-779.70117	30.99829	635.95422	789.59943	37.51294	639.84326	1.36764	579.68250	-1014.26508	
5257	52.560	-707.97644	-29.94243	-581.72540	707.14099	-17.83204	-497.22479	-779.29352	31.55618	635.83862	789.82025	37.81172	639.89984	1.76302	578.84534	-1014.81647	
5258	52.570	-707.39734	-30.56466	-581.78680	707.34607	-18.13278	-497.36627	-778.98126	31.87941	635.70911	790.07867	38.33010	640.13074	1.94582	578.20288	-1015.29156	
5259	52.580	-707.08368	-30.99110	-581.84967	707.63373	-18.39116	-497.59412	-778.56061	32.06593	635.69702	790.76123	38.88020	640.12628	2.63302	577.51471	-1015.96545	
5260	52.590	-706.75946	-31.35044	-581.92035	707.90753	-18.80386	-497.68805	-778.01166	32.61480	635.66028	791.19171	39.36052	639.82898	2.80484	576.53839	-1016.68054	
5261	52.600	-706.53204	-31.65120	-582.05115	708.16565	-19.10765	-497.72751	-778.03314	33.09900	635.31458	791.43445	39.45315	639.36029	3.41280	576.05035	-1016.92755	
5262	52.610	-706.11829	-32.09513	-582.19519	708.36383	-19.27398	-497.90869	-777.72485	33.63672	635.26752	791.68744	39.71191	639.26233	3.79419	575.14233	-1017.56152	
5263	52.620	-705.68616	-32.61439	-582.32959	708.95300	-19.89242	-497.89600	-777.35815	34.12480	635.22760	791.92578	39.90253	639.06958	3.81229	574.62811	-1018.20526	
5264	52.630	-705.32227	-32.93831	-582.37634	709.32465	-20.09209	-497.94852	-777.04510	34.52379	635.04749	792.10455	40.89479	639.35394	4.28553	573.86304	-1018.53528	
5265	52.640	-705.11084	-33.17907	-582.31940	709.71002	-20.40526	-498.11758	-776.77380	34.77166	634.96783	792.78210	41.49997	639.16479	4.45878	573.07587	-1019.07104	
5266	52.650	-704.81873	-33.54096	-582.34351	710.08978	-20.83441	-497.80923	-776.37915	35.13117	634.81439	793.03064	41.72261	639.17426	5.02121	572.61572	-1019.41003	
5267	52.660	-704.39716	-33.94347	-582.49744	710.53662	-21.17112	-497.77734	-775.90961	35.65084	634.53290	793.33069	41.84534	638.80414	5.16449	572.00348	-1020.02252	
5268	52.670	-703.92120	-34.44470	-582.53119	710.87512	-21.45527	-497.94379	-775.47742	35.88627	634.42407	793.65027	42.20103	638.44940	5.62218	571.33331	-1020.43793	
5269	52.680	-703.53802	-34.86194	-582.65314	711.15479	-21.87028	-498.24857	-775.21729	36.08917	634.28900	793.89917	42.89134	638.66089	5.91003	570.81427	-1020.64215	
5270	52.690	-703.26654	-35.17120	-582.67981	711.61920	-21.87382	-498.22708	-774.82916	36.69243	634.23462	794.34564	43.32120	638.69366	6.61272	570.20673	-1020.79602	
5271	52.700	-702.92090	-35.37511	-582.76947	711.98267	-22.09642	-498.43735	-774.47681	37.04690	634.26532	794.81476	43.56473	638.65222	6.96897	569.65906	-1021.30444	
5272	52.710	-702.13953	-35.74158	-582.64404	712.22742	-22.56207	-498.51532	-774.13666	37.23798	634.19049	795.22980	43.74882	638.59814	7.52833	569.11206	-1021.59375	
5273	52.720	-702.22186	-35.86512	-582.93536	712.44092	-22.69783	-498.65735	-773.72620	37.45580	634.14417	795.61713	43.96125	638.43195	7.70619	568.74005	-1022.03827	
5274	52.730	-701.92163	-36.26229	-583.00244	712.81647	-23.00362	-498.77390	-773.44330	37.61422	634.05579	795.90790	44.21651	638.16071	7.65163	568.16235	-1022.74573	
5275	52.740	-701.35370	-36.66599	-583.19153	713.35657	-23.43909	-498.48306	-772.93188	38.13686	633.92737	796.43054	44.81360	638.15887	8.15057	567.44177	-1023.30231	
5276	52.750	-700.72021	-37.05769	-583.14410	713.95917	-23.61915	-498.43225	-772.53290	38.46758	633.76550	796.87598	45.08469	637.97107	8.76753	566.86542	-1023.43085	
5277	52.760	-700.20721	-37.22243	-583.16022	714.20135	-23.76355	-498.71921	-772.06342	38.66991	633.69891	797.31738	45.15947	637.96326	9.34036	566.51086	-1023.52905	
5278	52.770	-699.97211	-37.41998	-583.26501	714.78290	-23.82179	-498.84674	-771.69305	38.87199	633.64093	797.76483	45.38628	637.88324	9.69442	566.19336	-1023.78754	
5279	52.780	-699.83911	-37.49276	-583.34961	714.99390	-24.14206	-498.89096	-771.30817	39.10151	633.63190	798.05383	45.62402	637.80817	10.03961	565.70441	-1024.15771	
5280	52.790	-699.59882	-37.62791	-583.30713	715.22589	-24.39621	-498.93262	-770.92834	39.29226	633.47028	798.28668	45.83777	637.61560	10.14947	565.28113	-1024.65271	
5281	52.800	-699.17664	-37.93877	-583.37183	715.52985	-24.77151	-498.85693	-770.57037	39.42285	633.36084	798.87006	45.98603	637.59918	10.54718	564.95654	-1024.81177	
5282	52.810	-698.32794	-38.29119	-583.12891	716.22015	-24.90729	-498.79935	-770.03735	39.64076	633.29388	799.46252	46.68756	637.67010	10.88646	564.74622	-1024.94458	
5283	52.820	-698.11053	-38.44012	-583.41901	716.60010	-24.93882	-499.10959	-769.62695	39.83582	633.24744	799.74921	46.83125	637.59918	11.43873	564.36047	-1025.08496	
5284	52.830	-697.52594	-38.71721	-583.37396	717.18457	-25.17116	-499.11807	-769.10028	40.05754	633.20270	800.05927	47.01952	637.64423	11.95103	564.14502	-1025.31531	
5285	52.840	-697.16840	-38.83226	-583.31836	717.53345	-25.15845	-498.97095	-768.83502	40.30766	633.14697	800.43774	47.15342	637.58960	12.33474	563.71747	-1025.57300	
5286	52.850	-696.89703	-38.99355	-583.37543	717.79883	-25.41721	-499.19635	-768.60187	40.47741	633.13660	800.74066	47.41539	637.51715	12.83306	563.37744	-1025.83508	
5287	52.860	-696.57739	-39.17027	-583.46808	718.08020	-25.64545	-499.15851	-768.42261	40.58784	633.05542	801.27881	47.58913	637.38647	13.04169	563.21857	-1025.94043	
5288	52.870	-696.17365	-39.29689	-583.58624	718.48285	-25.69126	-499.16577	-767.75714	40.74055	632.98517	801.48407	47.57177	637.08154	13.52430	562.93951	-1026.10864	
5289	52.880	-695.76648	-39.35669	-583.63379	718.91742	-25.70356	-499.16449	-767.31311	40.90722	632.92889	802.02777	47.56764	636.99835	13.93882	562.70239	-1026.28882	
5290	52.890	-695.33545	-39.40328	-583.61658	719.48364	-25.75825	-499.20953	-766.89307	41.00045	632.92969	802.56732	47.80222	637.16388	14.32885	562.53320	-1026.34448	
5291	52.900	-694.96820	-39.60482	-583.78662	719.79785	-25.82024	-499.27841	-766.43256	41.01509	632.89838	802.97009	47.87220	637.05713	14.82530	562.32465	-1026.50867	
5292	52.910	-694.62469	-39.54413	-583.64044	720.19916	-25.83477	-499.32565	-766.16394	41.13281	632.86859	803.20703	47.88902	637.16412	15.26383	562.20819	-1026.72839	
5293	52.920	-694.16095	-39.64584	-583.64679	720.45782	-25.75982	-499.41553	-765.88428	41.23009	632.81537	803.69373	47.85446	637.29584	15.47818	562.17798	-1026.76855	
5294	52.930	-693.80414	-39.71848	-583.69904	720.79071	-25.79745	-499.45847	-765.43195	41.30171	632.86279	804.08850	47.93928	637.33069	15.83093	562.11261	-1026.81750	
5295	52.940	-693.31354	-39.81310	-583.69965	721.35144	-26.06754	-499.39017	-764.71289	41.32809	632.88269	804.51532	48.07311	637.28815	16.13728	562.04120	-1026.83813	
5296	52.950	-692.73517	-40.00032	-583.70551	721.82471	-26.15656	-499.43640	-764.46271	41.25720	632.78442	805.11920	47.91909	637.07428	16.55105	561.99884	-1026.83630	
5297	52.960	-692.34540	-39.94500	-583.72235	722.21155	-26.13150	-499.38715	-764.02374	41.18674	632.79596	805.44818	48.13608	637.19861	16.90575	561.96118	-1026.75842	
5298	52.970	-692.12512	-39.89720	-583.72876	722.54108	-26.13450	-499.41245	-763.55115	41.15224	632.74756	805.63049	48.03521	637.14465	17.33196	561.93591	-1026.75598	
5299	52.980	-691.85828	-39.88424	-583.68768	722.75488	-26.10838	-499.40530	-763.21576	41.22899	632.74622	805.89453	47.89434	637.04230	17.88513	561.80884	-1026.81238	
5300	52.990	-691.49554	-39.88532	-583.62970	723.32349	-26.18427	-499.32089	-762.95319	41.30079	632.79926	806.14758	48.08321	637.09320	18.27835	561.85260	-1026.93359	
5301	53.000	-690.95874	-39.87378	-583.58667	723.65509	-26.17160	-499.34039	-762.55829	41.34582	632.77509	806.61926	48.15870	637.05414	18.55026	561.93738	-1026.90637	
5302	53.010	-690.55975	-39.89483	-583.64569	724.04474	-25.90475	-499.40793	-762.23389	41.29187	632.76477	807.16455	48.22530	637.20642	19.06869	562.06531	-1026.89490	
5303	53.020	-690.17920	-39.82817	-583.68677	724.48132	-25.91357	-499.45419	-761.76953	41.24720	632.76526	807.72205	48.03186	637.20428	19.50298	562.11560	-1026.94690	
5304	53.030	-689.65387	-39.81136	-583.49457	724.87402	-25.94695	-499.32794	-761.42957	41.18760	632.72089	808.27484	48.05017	637.16113	19.81490	562.09937	-1027.01563	
